<?xml version="1.0" encoding="utf-8"?>
<!-- Generator: Adobe Illustrator 15.0.2, SVG Export Plug-In . SVG Version: 6.00 Build 0)  -->
<!DOCTYPE svg PUBLIC "-//W3C//DTD SVG 1.1//EN" "http://www.w3.org/Graphics/SVG/1.1/DTD/svg11.dtd">
<svg version="1.1" id="Layer_1" xmlns="http://www.w3.org/2000/svg" xmlns:xlink="http://www.w3.org/1999/xlink" x="0px" y="0px"
	 width="612px" height="792px" viewBox="0 0 612 792" enable-background="new 0 0 612 792" xml:space="preserve">
<polyline fill="none" stroke="#0000FF" stroke-miterlimit="10" points="24.291,70.982 24.291,76.204 24.291,88.598 26.902,87.647 
	33.099,85.393 33.099,90.144 33.099,101.421 33.099,106.172 33.099,117.45 37.851,117.45 49.128,117.45 53.879,117.45 
	65.156,117.45 64.206,120.061 61.951,126.258 67.172,126.258 79.566,126.258 84.789,126.258 97.183,126.258 96.232,123.647 
	93.977,117.45 98.729,117.45 110.005,117.45 114.757,117.45 126.034,117.45 126.034,112.698 126.034,101.421 126.034,96.669 
	126.034,85.393 128.645,86.343 134.842,88.598 134.842,83.376 134.842,70.982 134.842,65.761 134.842,53.366 132.231,54.316 
	126.034,56.572 126.034,51.82 126.034,40.543 126.034,35.792 126.034,24.515 121.283,24.515 110.005,24.515 105.254,24.515 
	93.977,24.515 94.927,21.904 97.183,15.707 91.961,15.707 79.566,15.707 74.345,15.707 61.951,15.707 62.901,18.318 65.156,24.515 
	60.405,24.515 49.128,24.515 44.376,24.515 33.099,24.515 33.099,29.266 33.099,40.543 33.099,45.294 33.099,56.572 30.488,55.622 
	24.291,53.366 24.291,58.588 24.291,70.982 "/>
<polyline fill="none" stroke="#0000FF" stroke-miterlimit="10" points="48.319,106.047 47.326,105.442 46.907,104.896 
	46.644,104.261 46.554,103.579 46.644,102.896 46.907,102.261 47.326,101.715 47.872,101.297 48.507,101.033 49.189,100.943 
	49.872,101.033 50.507,101.297 51.053,101.715 51.472,102.261 51.735,102.896 51.825,103.579 51.735,104.261 51.472,104.896 
	51.053,105.442 50.507,105.861 49.872,106.125 49.189,106.214 48.507,106.125 48.319,106.047 "/>
<polyline fill="none" stroke="#0000FF" stroke-miterlimit="10" points="47.71,40.543 46.907,39.703 46.644,39.068 46.554,38.385 
	46.644,37.704 46.907,37.067 47.326,36.521 47.872,36.103 48.507,35.84 49.189,35.75 49.872,35.84 50.507,36.103 51.053,36.521 
	51.472,37.067 51.735,37.704 51.825,38.385 51.735,39.068 51.472,39.703 51.053,40.249 50.507,40.668 49.872,40.931 49.189,41.021 
	48.507,40.931 47.872,40.668 47.71,40.543 "/>
<polyline fill="none" stroke="#0000FF" stroke-miterlimit="10" points="109.073,106.047 108.081,105.442 107.662,104.896 
	107.398,104.261 107.309,103.579 107.398,102.896 107.662,102.261 108.081,101.715 108.626,101.297 109.262,101.033 
	109.944,100.943 110.626,101.033 111.262,101.297 111.808,101.715 112.227,102.261 112.49,102.896 112.58,103.579 112.49,104.261 
	112.227,104.896 111.808,105.442 111.262,105.861 110.626,106.125 109.944,106.214 109.262,106.125 109.073,106.047 "/>
<polyline fill="none" stroke="#0000FF" stroke-miterlimit="10" points="109.073,40.853 108.081,40.249 107.662,39.703 
	107.398,39.068 107.309,38.385 107.398,37.704 107.662,37.067 108.081,36.521 108.626,36.103 109.262,35.84 109.944,35.75 
	110.626,35.84 111.262,36.103 111.808,36.521 112.227,37.067 112.49,37.704 112.58,38.385 112.49,39.068 112.227,39.703 
	111.808,40.249 111.262,40.668 110.626,40.931 109.944,41.021 109.262,40.931 109.073,40.853 "/>
<polyline fill="none" stroke="#0000FF" stroke-miterlimit="10" points="24.711,337.07 37.96,337.07 45.144,337.07 58.393,337.07 
	65.576,337.07 65.576,331.359 65.576,328.261 75.708,328.261 94.396,328.261 94.396,333.972 94.396,337.07 107.646,337.07 
	114.829,337.07 128.079,337.07 135.262,337.07 135.262,317.326 135.262,306.623 132.166,306.623 126.454,306.623 126.454,288.634 
	126.454,278.88 129.55,278.88 135.262,278.88 135.262,259.138 135.262,248.435 122.012,248.435 114.829,248.435 101.58,248.435 
	94.396,248.435 94.396,254.146 94.396,257.242 96.475,257.242 97.602,257.242 97.602,268.037 97.602,273.888 97.602,284.681 
	97.602,290.533 91.409,290.533 79.986,290.533 73.793,290.533 62.37,290.533 62.37,279.74 62.37,273.888 62.37,263.093 
	62.37,257.242 64.449,257.242 65.576,257.242 65.576,251.531 65.576,248.435 52.327,248.435 45.144,248.435 31.894,248.435 
	24.711,248.435 24.711,268.177 24.711,278.88 27.807,278.88 33.519,278.88 33.519,296.871 33.519,306.623 30.422,306.623 
	24.711,306.623 24.711,326.365 24.711,337.07 "/>
<polyline fill="none" stroke="#0000FF" stroke-miterlimit="10" points="153.552,326.365 153.552,337.07 163.945,337.07 
	169.581,337.07 179.975,337.07 185.609,337.07 185.609,331.359 185.609,328.261 204.298,328.261 214.43,328.261 214.43,333.972 
	214.43,337.07 220.064,337.07 230.458,337.07 240.852,337.07 246.487,337.07 246.487,317.326 246.487,306.623 252.198,306.623 
	255.295,306.623 255.295,288.634 255.295,278.88 249.583,278.88 246.487,278.88 246.487,259.138 246.487,248.435 236.093,248.435 
	230.458,248.435 220.064,248.435 214.43,248.435 214.43,254.146 214.43,257.242 195.74,257.242 185.609,257.242 185.609,251.531 
	185.609,248.435 175.215,248.435 169.581,248.435 159.187,248.435 153.552,248.435 153.552,268.177 153.552,278.88 147.841,278.88 
	144.744,278.88 144.744,296.871 144.744,306.623 150.455,306.623 153.552,306.623 153.552,326.365 "/>
<polyline fill="none" stroke="#0000FF" stroke-miterlimit="10" points="49.547,229.523 61.645,229.523 65.576,229.523 
	65.576,222.875 65.576,220.715 87.328,220.715 94.396,220.715 94.396,227.363 94.396,229.523 106.494,229.523 110.425,229.523 
	122.522,229.523 126.454,229.523 126.454,206.542 126.454,199.072 133.102,199.072 135.262,199.072 135.262,178.134 135.262,171.33 
	128.614,171.33 126.454,171.33 126.454,148.351 126.454,140.884 114.356,140.884 110.425,140.884 98.327,140.884 94.396,140.884 
	94.396,147.532 94.396,149.692 72.645,149.692 65.576,149.692 65.576,143.044 65.576,140.884 53.478,140.884 49.547,140.884 
	37.449,140.884 33.519,140.884 33.519,163.863 33.519,171.33 26.871,171.33 24.711,171.33 24.711,192.268 24.711,199.072 
	31.358,199.072 33.519,199.072 33.519,222.056 33.519,229.523 45.616,229.523 49.547,229.523 "/>
<polyline fill="none" stroke="#0000FF" stroke-miterlimit="10" points="143.539,222.859 143.539,230.49 159.296,230.49 
	164.417,230.49 180.175,230.49 185.296,230.49 185.296,223.697 185.296,221.49 192.518,221.49 214.743,221.49 214.743,228.282 
	214.743,230.49 230.502,230.49 235.622,230.49 251.38,230.49 256.5,230.49 256.5,207.008 256.5,199.375 254.292,199.375 
	247.5,199.375 247.5,177.98 247.5,171.028 249.708,171.028 256.5,171.028 256.5,147.547 256.5,139.918 240.741,139.918 
	235.622,139.918 219.864,139.918 214.743,139.918 214.743,146.71 214.743,148.918 211.079,148.918 199.806,148.918 199.806,169.831 
	199.806,176.626 192.854,176.626 171.46,176.626 171.46,155.713 171.46,148.918 181.902,148.918 185.296,148.918 185.296,142.125 
	185.296,139.918 169.537,139.918 164.417,139.918 148.659,139.918 143.539,139.918 143.539,163.398 143.539,171.028 
	145.747,171.028 152.539,171.028 152.539,192.422 152.539,199.375 150.331,199.375 143.539,199.375 143.539,222.859 "/>
<path fill="none" stroke="#0000FF" stroke-miterlimit="10" d="M188.244,75.887l-0.571-1.694l-0.209-0.947l-0.193-1.779v-0.969
	l0.193-1.779l0.209-0.946l0.571-1.695l0.407-0.88l0.922-1.533l0.588-0.772l1.229-1.298l0.74-0.628l1.479-1.003l0.856-0.454
	l1.662-0.662l0.936-0.26l1.764-0.29l0.969-0.053l1.786,0.097l0.957,0.157l1.724,0.478l0.9,0.358l1.58,0.838l0.803,0.544l1.363,1.157
	l0.667,0.704l1.083,1.424l0.5,0.83l0.751,1.624l0.31,0.919l0.384,1.747l0.104,0.964v1.788l-0.104,0.964l-0.384,1.746l-0.31,0.919
	l-0.751,1.624l-0.5,0.83l-1.083,1.424l-0.667,0.704l-1.363,1.158l-0.803,0.543l-1.58,0.838l-0.9,0.359l-1.724,0.478l-0.957,0.157
	l-1.786,0.097l-0.969-0.052l-1.764-0.289l-0.936-0.26l-1.662-0.662l-0.856-0.454l-1.479-1.004l-0.74-0.627l-1.229-1.299
	l-0.588-0.771l-0.922-1.533L188.244,75.887 M152.539,102.085v5.757v10.621h5.757h10.621h5.758h10.621l-1.152,3.163l-2.124,5.837
	h6.327h11.673h6.327h11.673l-1.151-3.164l-2.125-5.836h5.758h10.621h5.757H247.5v-5.758v-10.62v-5.758v-10.62l3.163,1.152
	l5.837,2.124v-6.328V70.982v-6.328V52.982l-3.165,1.152l-5.835,2.125V50.5V39.88v-5.758v-10.62h-5.759h-10.619h-5.758h-10.621
	l1.152-3.164l2.124-5.836h-6.328H200.02h-6.328H182.02l1.151,3.164l2.125,5.836h-5.758h-10.621h-5.758h-10.62v5.757V39.88v5.757
	v10.621l-3.165-1.152l-5.835-2.125v6.328v11.672v6.328v11.672l3.163-1.152l5.837-2.124v5.757V102.085 M167.153,106.873l0.73,0.385
	l0.807,0.182l0.824-0.032l0.789-0.245l0.699-0.44l0.561-0.607l0.385-0.73l0.183-0.806l-0.032-0.825l-0.246-0.79l-0.439-0.698
	l-0.606-0.561l-0.73-0.384l-0.807-0.183l-0.825,0.032l-0.788,0.245l-0.698,0.44l-0.563,0.607l-0.384,0.73L165.829,104l0.032,0.825
	l0.244,0.79l0.441,0.699L167.153,106.873 M229.464,107.051l0.77,0.318l0.825,0.108l0.826-0.108l0.769-0.318l0.66-0.507l0.508-0.66
	l0.318-0.769l0.107-0.826l-0.107-0.826l-0.318-0.768l-0.508-0.661l-0.66-0.507l-0.769-0.318l-0.826-0.108l-0.825,0.108l-0.77,0.318
	l-0.659,0.507l-0.509,0.661l-0.317,0.768l-0.108,0.826l0.108,0.826l0.317,0.769l0.509,0.66L229.464,107.051 M167.153,40.258
	l0.73,0.384l0.807,0.183l0.824-0.032l0.789-0.244l0.699-0.441l0.561-0.606l0.385-0.73l0.183-0.806l-0.032-0.826l-0.246-0.789
	l-0.439-0.7l-0.606-0.56l-0.73-0.385l-0.807-0.183l-0.825,0.033l-0.788,0.245l-0.698,0.441l-0.563,0.606l-0.384,0.73l-0.183,0.806
	l0.032,0.826L166.105,39l0.441,0.698L167.153,40.258 M229.963,40.643l0.806,0.183l0.826-0.032l0.788-0.244l0.698-0.441l0.561-0.606
	l0.386-0.73l0.183-0.806l-0.033-0.826l-0.244-0.789l-0.44-0.7l-0.606-0.56l-0.731-0.385l-0.806-0.183l-0.824,0.033l-0.79,0.245
	l-0.698,0.441l-0.561,0.606l-0.386,0.73l-0.182,0.806l0.032,0.826L228.185,39l0.441,0.698l0.605,0.561L229.963,40.643
	 M207.782,38.178h-15.525v5.026h15.525V38.178z"/>
</svg>
